<svg id="visual" viewBox="0 0 900 600" width="900" height="600" xmlns="http://www.w3.org/2000/svg" xmlns:xlink="http://www.w3.org/1999/xlink" version="1.1"><path d="M0 73L82 115L164 49L245 73L327 55L409 121L491 85L573 97L655 85L736 121L818 127L900 85L900 0L818 0L736 0L655 0L573 0L491 0L409 0L327 0L245 0L164 0L82 0L0 0Z" fill="#0066ff"></path><path d="M0 217L82 241L164 193L245 217L327 169L409 247L491 157L573 253L655 211L736 181L818 283L900 193L900 83L818 125L736 119L655 83L573 95L491 83L409 119L327 53L245 71L164 47L82 113L0 71Z" fill="#007aff"></path><path d="M0 259L82 325L164 253L245 277L327 253L409 289L491 229L573 319L655 307L736 229L818 319L900 289L900 191L818 281L736 179L655 209L573 251L491 155L409 245L327 167L245 215L164 191L82 239L0 215Z" fill="#008cff"></path><path d="M0 517L82 439L164 385L245 463L327 403L409 373L491 433L573 511L655 511L736 379L818 493L900 373L900 287L818 317L736 227L655 305L573 317L491 227L409 287L327 251L245 275L164 251L82 323L0 257Z" fill="#2b9dfc"></path><path d="M0 601L82 601L164 601L245 601L327 601L409 601L491 601L573 601L655 601L736 601L818 601L900 601L900 371L818 491L736 377L655 509L573 509L491 431L409 371L327 401L245 461L164 383L82 437L0 515Z" fill="#4facf7"></path></svg>